<svg width="17" height="17" viewBox="0 0 17 17" fill="none" xmlns="http://www.w3.org/2000/svg">
<g clip-path="url(#clip0)">
<path d="M7.44344 5.67657C7.38385 5.45806 7.28453 5.25943 7.14548 5.10051C7.00644 4.9416 6.84752 4.82242 6.66875 4.74296C6.47011 4.66351 6.2516 4.62378 6.01324 4.62378C5.67555 4.62378 5.37759 4.70324 5.15909 4.84228C4.94058 4.98133 4.78167 5.19983 4.68235 5.47793C4.56317 5.75602 4.52344 6.11358 4.52344 6.53072C4.52344 6.928 4.58303 7.24582 4.72208 7.52392C4.84126 7.80201 5.02004 8.00065 5.25841 8.11983C5.49677 8.23902 5.75501 8.31847 6.0331 8.31847C6.50984 8.31847 6.86739 8.15956 7.14548 7.8616C7.42358 7.56364 7.54276 7.10677 7.54276 6.49099C7.54276 6.17317 7.50304 5.91494 7.44344 5.67657ZM6.50984 7.40473C6.43038 7.60337 6.27147 7.70269 6.0331 7.70269C5.87419 7.70269 5.75501 7.66296 5.65569 7.56364C5.55637 7.46432 5.49677 7.34514 5.47691 7.16636C5.43718 6.98759 5.41732 6.74922 5.41732 6.47113C5.41732 6.19303 5.43718 5.97453 5.47691 5.79575C5.51664 5.61698 5.57623 5.47793 5.65569 5.39847C5.75501 5.29915 5.87419 5.25943 6.0331 5.25943C6.2516 5.25943 6.43038 5.35875 6.50984 5.53752C6.60916 5.73616 6.64888 6.03412 6.64888 6.45126C6.62902 6.86841 6.58929 7.18623 6.50984 7.40473Z" fill="#0B2101"/>
<path d="M10.8402 4.66356C10.7806 4.60397 10.7011 4.58411 10.6018 4.58411C10.5025 4.58411 10.423 4.60397 10.3635 4.66356C10.3039 4.72315 10.2443 4.80261 10.1847 4.92179L6.1523 11.4571C6.09271 11.5564 6.05298 11.6358 6.05298 11.6954C6.05298 11.7947 6.09271 11.8543 6.17216 11.9139C6.25162 11.9735 6.31121 11.9934 6.39067 11.9934C6.50985 11.9934 6.62903 11.9139 6.72835 11.7351L10.7409 5.25948C10.8799 5.08071 10.9395 4.94166 10.9395 4.88207C10.9395 4.78275 10.8998 4.72315 10.8402 4.66356Z" fill="#0B2101"/>
<path d="M12.3897 9.1727C12.3103 8.93433 12.211 8.73569 12.0918 8.59664C11.9527 8.43773 11.7938 8.31855 11.615 8.25895C11.4363 8.1795 11.2178 8.13977 10.9595 8.13977C10.4431 8.13977 10.0656 8.29868 9.82728 8.61651C9.58891 8.93433 9.46973 9.41107 9.46973 10.0268C9.46973 10.4241 9.52932 10.742 9.66837 11.02C9.80741 11.2783 9.98619 11.4769 10.2047 11.616C10.4431 11.7352 10.7013 11.8146 10.9794 11.8146C11.4561 11.8146 11.8137 11.6557 12.0918 11.3577C12.3699 11.0598 12.4891 10.6029 12.4891 9.98712C12.4891 9.6693 12.4493 9.41107 12.3897 9.1727ZM11.4363 10.881C11.3568 11.0796 11.1979 11.179 10.9595 11.179C10.7212 11.179 10.5622 11.0796 10.4828 10.881C10.3835 10.6824 10.3437 10.3645 10.3437 9.92753C10.3437 9.64943 10.3636 9.41107 10.4033 9.25215C10.4431 9.07338 10.5027 8.95419 10.602 8.85487C10.7013 8.75555 10.8205 8.71583 10.9794 8.71583C11.1979 8.71583 11.3767 8.81515 11.4561 8.99392C11.5554 9.19256 11.5952 9.49052 11.5952 9.90767C11.5753 10.3645 11.5356 10.6824 11.4363 10.881Z" fill="#0B2101"/>
<path d="M16.0248 8.49732L16.8988 7.06711C17.0577 6.92807 17.018 6.70956 16.8591 6.61024L15.5083 5.61704L15.7666 3.94847C15.7864 3.76969 15.6871 3.59092 15.5083 3.55119L13.8596 3.15391L13.4624 1.52506C13.4226 1.34628 13.2438 1.2271 13.0651 1.26683L11.3965 1.52506L10.4033 0.174309C10.2841 0.0352611 10.0855 -0.0243309 9.92656 0.0749891L8.49635 0.929141L7.06614 0.0551251C6.90723 -0.0441949 6.70859 -0.00446691 6.58941 0.154445L5.59621 1.5052L3.92763 1.24696C3.74885 1.2271 3.57008 1.32642 3.53035 1.5052L3.13307 3.15391L1.50422 3.55119C1.32545 3.59092 1.20626 3.76969 1.24599 3.94847L1.50422 5.61704L0.153469 6.61024C0.0144205 6.70956 -0.0451715 6.92807 0.0541486 7.08698L0.928165 8.51719L0.0541486 9.94739C-0.0451715 10.1063 -0.00544348 10.3049 0.153469 10.4241L1.50422 11.4173L1.22613 13.0859C1.20626 13.2647 1.30558 13.4435 1.48436 13.4832L3.11321 13.8805L3.51049 15.5093C3.55021 15.6881 3.72899 15.8073 3.90777 15.7675L5.57634 15.5093L6.56954 16.8601C6.62913 16.9594 6.74832 16.9991 6.84764 16.9991C6.90723 16.9991 6.96682 16.9792 7.02642 16.9395L8.45662 16.0655L9.88683 16.9395C10.0457 17.0388 10.2444 16.9991 10.3636 16.8402L11.3568 15.4894L13.0253 15.7477C13.2041 15.7675 13.3829 15.6682 13.4226 15.4894L13.8199 13.8606L15.4488 13.4633C15.6275 13.4236 15.7467 13.2448 15.707 13.066L15.4488 11.3975L16.7995 10.4043C16.9386 10.2851 16.9981 10.0864 16.8988 9.92753L16.0248 8.49732ZM14.9124 11.0002C14.8131 11.0796 14.7535 11.2187 14.7734 11.3379L15.0117 12.8873L13.4822 13.2647C13.3432 13.3044 13.2439 13.4037 13.224 13.5229L12.8466 15.0524L11.2972 14.8141C11.1581 14.7942 11.0389 14.8538 10.9595 14.9531L10.0259 16.2244L8.67513 15.41C8.61554 15.3703 8.55594 15.3504 8.49635 15.3504C8.43676 15.3504 8.37717 15.3703 8.31758 15.41L6.96682 16.2244L6.03321 14.9531C5.95376 14.8538 5.81471 14.7942 5.69553 14.8141L4.14613 15.0524L3.76872 13.5229C3.72899 13.3839 3.62967 13.2845 3.51049 13.2647L1.98096 12.8873L2.21933 11.3379C2.23919 11.1988 2.1796 11.0796 2.08028 11.0002L0.808981 10.0666L1.62341 8.71583C1.683 8.59664 1.683 8.45759 1.62341 8.33841L0.808981 6.98766L2.08028 6.05405C2.1796 5.97459 2.23919 5.83555 2.21933 5.71636L1.98096 4.16697L3.51049 3.78956C3.64953 3.74983 3.74885 3.65051 3.76872 3.53132L4.14613 2.0018L5.69553 2.24016C5.83457 2.26003 5.95376 2.20044 6.03321 2.10112L6.96682 0.829821L8.31758 1.64424C8.43676 1.70384 8.57581 1.70384 8.69499 1.64424L10.0457 0.829821L10.9794 2.10112C11.0588 2.20044 11.1979 2.26003 11.317 2.24016L12.8664 2.0018L13.2439 3.53132C13.2836 3.67037 13.3829 3.76969 13.5021 3.78956L15.0316 4.16697L14.7932 5.71636C14.7734 5.85541 14.833 5.97459 14.9323 6.05405L16.2036 6.98766L15.3693 8.33841C15.3097 8.45759 15.3097 8.59664 15.3693 8.71583L16.1837 10.0666L14.9124 11.0002Z" fill="#0B2101"/>
</g>
<defs>
<clipPath id="clip0">
<rect width="17" height="17" fill="white"/>
</clipPath>
</defs>
</svg>
